# xmcd
#
# Track frame offsets: 
#        150
#        45482
#        79651
#        109697
#        146269
#        197770
#
# Disc length: 3268 seconds
#
# Revision: 0
# Processed by: cddbd v1.5.2PL0 Copyright (c) Steve Scherf et al.
# Submitted via: ExactAudioCopy v0.99pb5
#
DISCID=440cc206
DTITLE=Loscil - Coast Range Arc
DYEAR=2011
DGENRE=Ambient
TTITLE0=Black Tusk
TTITLE1=Fromme
TTITLE2=Stave Peak
TTITLE3=Névé
TTITLE4=Brohm Ridge
TTITLE5=Goat Mountain
EXTD=
EXTT0=
EXTT1=
EXTT2=
EXTT3=
EXTT4=
EXTT5=
PLAYORDER=
